<svg width="16" height="20" viewBox="0 0 16 20" fill="none" xmlns="http://www.w3.org/2000/svg">
<path d="M7.82736 20C8.96229 20 9.89086 19.0769 9.89086 17.9487H5.76386C5.76386 19.0769 6.68211 20 7.82736 20ZM14.0179 13.8462V8.71795C14.0179 5.56923 12.3258 2.93333 9.37499 2.2359V1.53846C9.37499 0.68718 8.68371 0 7.82736 0C6.971 0 6.27973 0.68718 6.27973 1.53846V2.2359C3.3186 2.93333 1.63685 5.55897 1.63685 8.71795V13.8462L0.305891 15.1692C-0.344113 15.8154 0.109858 16.9231 1.02812 16.9231H14.6163C15.5345 16.9231 15.9988 15.8154 15.3488 15.1692L14.0179 13.8462Z" fill="#575757"/>
</svg>
