<svg width="20" height="20" viewBox="0 0 20 20" fill="none" xmlns="http://www.w3.org/2000/svg">
<path d="M17.7778 0H2.22222C0.988889 0 0 1 0 2.22222V17.7778C0 19 0.988889 20 2.22222 20H17.7778C19 20 20 19 20 17.7778V2.22222C20 1 19 0 17.7778 0ZM14.4444 11.1111H11.1111V14.4444C11.1111 15.0556 10.6111 15.5556 10 15.5556C9.38889 15.5556 8.88889 15.0556 8.88889 14.4444V11.1111H5.55556C4.94444 11.1111 4.44444 10.6111 4.44444 10C4.44444 9.38889 4.94444 8.88889 5.55556 8.88889H8.88889V5.55556C8.88889 4.94444 9.38889 4.44444 10 4.44444C10.6111 4.44444 11.1111 4.94444 11.1111 5.55556V8.88889H14.4444C15.0556 8.88889 15.5556 9.38889 15.5556 10C15.5556 10.6111 15.0556 11.1111 14.4444 11.1111Z" fill="#575757"/>
</svg>
