<svg xmlns="http://www.w3.org/2000/svg" viewBox="0 0 64 64"><path d="M58.11,23.83l-1.53-1.28a3,3,0,0,0-2.19-.69,2.93,2.93,0,0,0-2,1.06l-1.93,2.29L48,28.1V18.81A3,3,0,0,0,50,16V10a3,3,0,0,0-3-3H44V5a3,3,0,0,0-6,0V7H17V5a3,3,0,0,0-6,0V7H7a3,3,0,0,0-3,3v6a3,3,0,0,0,2,2.81V57a5,5,0,0,0,5,5H43a5,5,0,0,0,5-5V40.55L58.48,28.06A3,3,0,0,0,58.11,23.83ZM40,5a1,1,0,0,1,2,0v6a1,1,0,0,1-2,0ZM13,5a1,1,0,0,1,2,0v6a1,1,0,0,1-2,0ZM46,57a3,3,0,0,1-3,3H11a3,3,0,0,1-3-3V19H46V30.49L35.64,42.83a.89.89,0,0,0-.19.39l0,0-1.56,6.53a1,1,0,0,0,.33,1,1.05,1.05,0,0,0,.65.23,1.14,1.14,0,0,0,.4-.08l6.15-2.67h0a.93.93,0,0,0,.36-.27l4.23-5ZM40.88,45.92l-3.07-2.57,13.5-16.09,3.07,2.58Z"/><path d="M14 27H40a1 1 0 0 0 0-2H14a1 1 0 0 0 0 2zM14 35H38a1 1 0 0 0 0-2H14a1 1 0 0 0 0 2zM32 41H14a1 1 0 0 0 0 2H32a1 1 0 0 0 0-2zM30 49H14a1 1 0 0 0 0 2H30a1 1 0 0 0 0-2z"/></svg>