<svg xmlns="http://www.w3.org/2000/svg" width="24" height="24" fill="none" viewBox="0 0 24 24"><path fill="#000" fill-rule="evenodd" d="M1.25 8C1.25 6.48122 2.48122 5.25 4 5.25H20C21.5188 5.25 22.75 6.48122 22.75 8V18.7692C22.75 20.288 21.5188 21.5192 20 21.5192H4C2.48122 21.5192 1.25 20.288 1.25 18.7692V8ZM4 6.75C3.30964 6.75 2.75 7.30964 2.75 8V18.7692C2.75 19.4596 3.30964 20.0192 4 20.0192H20C20.6904 20.0192 21.25 19.4596 21.25 18.7692V8C21.25 7.30964 20.6904 6.75 20 6.75H4Z" clip-rule="evenodd"/><path fill="#000" fill-rule="evenodd" d="M9.5 10.75C9.08579 10.75 8.75 11.0858 8.75 11.5V14.5C8.75 14.9142 9.08579 15.25 9.5 15.25H14.5C14.9142 15.25 15.25 14.9142 15.25 14.5V11.5C15.25 11.0858 14.9142 10.75 14.5 10.75H9.5Z" clip-rule="evenodd"/><path fill="#000" fill-rule="evenodd" d="M22.5762 7.51988C22.8413 7.83809 22.7983 8.31101 22.4801 8.57618L16.4801 13.5762C16.3454 13.6885 16.1755 13.75 16 13.75H14.5C14.0858 13.75 13.75 13.4142 13.75 13 13.75 12.5858 14.0858 12.25 14.5 12.25H15.7285L21.5199 7.42385C21.8381 7.15868 22.311 7.20167 22.5762 7.51988zM1.42383 7.51988C1.15866 7.83809 1.20165 8.31101 1.51986 8.57618L7.51986 13.5762C7.65465 13.6885 7.82455 13.75 8 13.75H9.5C9.91421 13.75 10.25 13.4142 10.25 13 10.25 12.5858 9.91421 12.25 9.5 12.25H8.27154L2.48014 7.42385C2.16193 7.15868 1.68901 7.20167 1.42383 7.51988zM7.25 5C7.25 3.48122 8.48122 2.25 10 2.25H14C15.5188 2.25 16.75 3.48122 16.75 5V6C16.75 6.41421 16.4142 6.75 16 6.75H8C7.58579 6.75 7.25 6.41421 7.25 6V5zM10 3.75C9.30964 3.75 8.75 4.30964 8.75 5V5.25H15.25V5C15.25 4.30964 14.6904 3.75 14 3.75H10z" clip-rule="evenodd"/></svg>