<?xml version="1.0" encoding="UTF-8"?>
<!DOCTYPE svg PUBLIC "-//W3C//DTD SVG 1.1//EN" "http://www.w3.org/Graphics/SVG/1.1/DTD/svg11.dtd">
<!-- Creator: CorelDRAW X7 -->
<svg xmlns="http://www.w3.org/2000/svg" xml:space="preserve" width="1.1566in" height="0.237201in" version="1.1" style="shape-rendering:geometricPrecision; text-rendering:geometricPrecision; image-rendering:optimizeQuality; fill-rule:evenodd; clip-rule:evenodd"
viewBox="0 0 1213 249"
 xmlns:xlink="http://www.w3.org/1999/xlink">
 <defs>
  <style type="text/css">
   <![CDATA[
    .fil1 {fill:#01012C}
    .fil0 {fill:#077FC8}
   ]]>
  </style>
 </defs>
 <g id="Layer_x0020_1">
  <metadata id="CorelCorpID_0Corel-Layer"/>
  <g id="_646393624">
   <g>
    <g>
     <g>
      <path class="fil0" d="M302 151l46 0 17 -24 -22 -32 -41 56zm-136 -117l120 0 0 -33 -120 0 0 33zm199 -9l-17 -24 -46 0 41 56 22 -32zm36 50l55 -74 -46 0 -31 44 0 0 -23 31 38 52 0 0 17 23 46 0 -56 -76zm-235 76l120 0 0 -34 -120 0 0 34zm0 -63l120 0 0 -32 -120 0 0 32z"/>
     </g>
    </g>
   </g>
   <g>
    <polygon class="fil1" points="923,181 923,248 920,248 920,181 "/>
    <path class="fil1" d="M939 216l0 32 -3 0 0 -41 3 0 0 2c4,-3 8,-5 12,-5 5,0 9,1 12,4 4,4 5,7 5,11l0 28 -4 0 0 -28c0,-3 -1,-6 -3,-8 -2,-3 -5,-4 -9,-4 -3,0 -6,1 -8,4 -3,2 -4,3 -5,5z"/>
    <path class="fil1" d="M986 211l0 37 -3 0 0 -37 -4 0 0 -4 4 0 0 -11c0,-3 1,-5 3,-7 2,-2 5,-4 8,-4 1,0 3,0 4,2l-1 3c-1,0 -2,-1 -3,-1 -2,0 -4,1 -6,2 -1,1 -2,3 -2,5l0 11 9 0 0 4 -9 0z"/>
    <path class="fil1" d="M1022 203c7,0 12,2 17,6 4,5 6,10 6,17 0,6 -2,12 -6,16 -5,5 -10,7 -17,7 -6,0 -12,-2 -16,-7 -4,-4 -7,-10 -7,-16 0,-7 3,-12 7,-17 4,-4 10,-6 16,-6zm-14 9c-3,3 -5,8 -5,14 0,5 2,11 5,14 3,3 9,5 14,5 6,0 11,-2 14,-5 4,-3 6,-9 6,-14 0,-6 -2,-11 -6,-14 -3,-4 -8,-6 -13,-6 -4,0 -11,1 -15,6z"/>
    <polygon class="fil1" points="1060,206 1060,189 1064,189 1064,206 1072,206 1072,209 1064,209 1064,247 1060,247 1060,209 1052,209 1052,206 "/>
    <path class="fil1" d="M1180 181l4 0 0 27c3,-3 6,-4 11,-4 4,0 8,1 12,4 3,4 4,7 4,11l0 28 -3 0 0 -28c0,-3 -1,-6 -4,-8 -2,-3 -5,-4 -8,-4 -4,0 -7,1 -9,4 -1,1 -2,2 -2,3l0 33 -3 0 -2 -66 0 0z"/>
   </g>
   <path class="fil1" d="M1108 44c0,8 4,12 7,14 2,1 4,1 7,1 7,0 14,0 21,0 -6,9 -26,32 -26,32 0,0 -25,-5 -37,-22 -6,-10 -8,-23 -4,-35 2,-10 8,-19 16,-24 13,-9 30,-9 45,-9 24,0 48,0 71,0 0,10 0,21 0,31 -30,0 -58,0 -88,0 -2,0 -10,2 -12,12zm-174 74l120 0 0 31 -120 0 0 -31zm0 -62l120 0 0 31 -120 0 0 -31zm0 -56l120 0 0 32 -120 0 0 -32zm-62 32l-47 0 0 0 -40 0 0 -32 128 0 0 32 -41 0 0 0zm-120 101c-4,4 -7,8 -11,11 -11,7 -23,7 -36,7 -24,0 -48,0 -72,-2 -2,0 -7,0 -8,-1 -1,-2 0,-6 0,-8 0,-8 0,-15 1,-22 29,0 56,0 84,0 5,0 9,0 11,-5 1,-2 1,-4 1,-6 0,-36 0,-71 0,-107 13,0 26,0 38,0 0,26 1,53 1,80 0,12 0,24 -2,35 0,7 -3,13 -7,18zm-103 -46c-2,-1 -3,-2 -5,-3 -10,-7 -17,-17 -19,-28 -2,-15 -1,-29 -1,-42 0,-1 0,-13 0,-13 12,0 25,0 37,0 0,13 0,26 0,39 0,4 0,8 1,11 1,4 5,7 8,8 1,0 3,0 4,0 10,0 19,0 29,0 0,11 0,21 0,32 -11,0 -20,0 -31,0 -8,0 -15,-2 -23,-4zm-45 13c1,10 -1,20 -6,28 -7,11 -19,16 -31,19 -12,4 -25,4 -37,4 -17,0 -65,0 -65,0 0,0 0,-24 0,-33 29,0 59,0 89,0 3,0 8,0 10,-2 3,-3 5,-8 5,-11 0,-16 -10,-16 -15,-16 -29,0 -59,0 -88,0 0,-10 0,-22 0,-33 27,0 55,0 83,0 5,0 12,0 15,-3 3,-2 5,-5 3,-14 -1,-4 -7,-4 -11,-4 -30,0 -61,0 -91,0 0,-11 0,-22 0,-33 24,0 48,0 72,0 11,0 23,0 34,2 10,3 21,9 27,19 4,8 5,17 4,26 -1,9 -5,18 -11,24 7,8 12,16 13,26 0,0 0,0 0,1zm-138 -14l0 0 0 0 0 0 0 0zm401 63l-39 0 0 -93 39 0 0 93zm311 -45c0,-12 -13,-13 -17,-13 -5,0 -9,0 -12,0 7,-9 15,-19 23,-28 1,-1 3,-3 3,-3 0,0 2,1 3,1 17,4 31,18 34,35 2,13 0,26 -8,37 -4,7 -8,11 -15,14 -7,4 -15,4 -23,4 -11,0 -22,0 -32,0 -11,0 -22,0 -33,0 -6,0 -22,0 -22,0l0 -32c0,0 55,0 82,0 2,-1 17,-1 17,-15z"/>
   <path class="fil0" d="M144 103c-1,3 -2,7 -4,10 -8,16 -21,28 -36,33 -10,3 -20,5 -30,5 -10,0 -36,0 -36,0l-6 0 0 -8 -8 0 0 -8 8 0 0 -7 -8 0 0 -8 -9 0 0 8 -7 0 0 -8 -8 0 0 -8 8 0 0 8 7 0 0 -8 9 0 0 8c0,0 24,0 37,0 13,0 25,-1 35,-8 11,-6 19,-19 19,-32 0,-13 -6,-27 -15,-36 -4,-5 -9,-9 -16,-10 -4,-1 -9,-1 -13,-1 -15,0 -47,0 -47,0l0 7 -9 0 0 -7 9 0 0 -8 -9 0 0 8 -7 0 0 -8 7 0 0 -8 -7 0 0 -7 -8 0 0 -8 8 0 0 8 7 0 0 -8c0,0 35,0 52,0 17,0 34,2 49,12 16,11 26,31 29,50 3,12 2,25 -1,39zm-120 -93l-9 0 0 7 9 0 0 -7zm8 7l-8 0 0 8 8 0 0 -8zm-24 31l0 -8 7 0 0 8 -7 0zm7 16l-7 0 0 -8 7 0 0 8zm0 16l-7 0 0 -8 7 0 0 8zm0 16l-7 0 0 -9 7 0 0 9zm0 16l-7 0 0 -8 7 0 0 8zm0 -56l0 -8 9 0 0 8 -9 0zm0 16l0 -8 9 0 0 8 -9 0zm0 15l0 -7 9 0 0 7 -9 0zm0 17l0 -8 9 0 0 8 -9 0zm0 39l-7 0 0 -8 7 0 0 8zm0 -15l9 0 0 7 -9 0 0 -7zm0 23l0 -8 9 0 0 8 -9 0zm-15 0l0 -8 8 0 0 8 -8 0zm0 -16l0 -7 8 0 0 7 -8 0zm0 -31l0 -8 8 0 0 8 -8 0zm0 -17l0 -7 8 0 0 7 -8 0zm0 -15l0 -8 8 0 0 8 -8 0zm0 -16l0 -8 8 0 0 8 -8 0zm0 -23l8 0 0 7 -8 0 0 -7zm8 -8l-8 0 0 -8 8 0 0 8z"/>
   <path class="fil1" d="M1118 238c-3,4 -8,7 -15,7 -5,0 -10,-2 -13,-5l28 -27c0,0 0,0 0,0l2 -2c-4,-6 -10,-8 -17,-8 -13,0 -23,10 -23,23 0,13 10,23 23,23 8,0 15,-5 19,-10l-4 -1zm-15 -33c4,0 10,2 13,4l-28 28c-2,-4 -5,-8 -5,-12 0,-11 9,-20 20,-20z"/>
   <path class="fil1" d="M1167 238c-3,4 -8,7 -15,7 -11,0 -18,-9 -18,-19 0,-11 8,-20 18,-20 7,0 11,3 15,8l5 -1c-5,-6 -11,-10 -19,-10 -13,0 -23,10 -23,23 0,13 10,23 23,23 8,0 14,-5 19,-10l-5 -1z"/>
  </g>
 </g>
</svg>
