<svg width="27" height="28" viewBox="0 0 27 28" fill="none" xmlns="http://www.w3.org/2000/svg">
<path fill-rule="evenodd" clip-rule="evenodd" d="M1.37876 4.53907H0V3.16031H1.37876V4.53907ZM0 5.9222H1.37876V7.30534H0V5.9222ZM0 10.0672V8.68409H1.37876V10.0672H0ZM0 13.0261V11.6473H1.37876V13.0261H0ZM0 15.7923V14.4092H1.37876V15.7923H0ZM0 18.7512V17.3681H1.37876V18.7512H0ZM0 24.4763V23.0932H1.37876V24.4763H0ZM0 27.2382V25.8551H1.37876V27.2382H0ZM2.76189 27.2382V25.8551H4.34199V27.2382H2.76189ZM2.76189 23.0932H4.34199V24.4763H2.76189V23.0932ZM2.76189 25.8551H1.37876V24.4763H2.76189V25.8551ZM2.76189 18.7512V17.3681H4.34199V18.7512H2.76189ZM2.76189 15.7923V14.4092H4.34199V15.7923H2.76189ZM2.76189 13.0261V11.6473H4.34199V13.0261H2.76189ZM2.76189 10.0672V8.68409H4.34199V10.0672H2.76189ZM2.76189 20.3313H1.37876V18.7512H2.76189V20.3313ZM2.76189 17.3681H1.37876V15.7923H2.76189V17.3681ZM2.76189 14.4092H1.37876V13.0261H2.76189V14.4092ZM2.76189 11.6473H1.37876V10.0672H2.76189V11.6473ZM1.37876 8.68409V7.30534H2.76189V8.68409H1.37876ZM5.72075 3.16031H4.34199V4.53907H5.72075V3.16031ZM4.34199 1.77718H2.76189V3.16031H4.34199V1.77718ZM26.0519 18.5543C25.8754 19.2434 25.6106 19.9069 25.2641 20.5283C23.9254 23.2589 21.5964 25.3767 18.7511 26.4504C17.0285 27.0004 15.2279 27.2665 13.4199 27.2382H5.72075V25.8551H4.34199V24.4763H5.72075V23.0932H4.34199V21.7101H2.76189V23.0932H1.37876V21.7101H0V20.3313H1.37876V21.7101H2.76189V20.3313H4.34199V21.7101H11.0519C13.4199 21.7101 15.5909 21.5131 17.368 20.3313C18.3753 19.701 19.2095 18.8293 19.7949 17.7952C20.3803 16.7611 20.6986 15.5973 20.7207 14.4092C20.6828 11.994 19.7717 9.6742 18.1558 7.87873C17.368 7.09087 16.3788 6.29863 15.197 6.10166C14.4188 5.9385 13.6234 5.87234 12.829 5.90469H4.34199V7.28783H2.76189V5.90469H4.34199V4.52156H2.76189V5.90469H1.37876V4.52156H2.76189V3.1428H1.37876V1.75967H0V0.394043H1.37876V1.77718H2.76189V0.394043H12.0368C15.197 0.394043 18.3528 0.792351 20.9221 2.58255C23.8809 4.55658 25.658 8.1107 26.2489 11.6648C26.8398 13.8183 26.6428 16.195 26.0519 18.5543Z" fill="#077FC8"/>
</svg>
