<svg width="18" height="12" viewBox="0 0 18 12" fill="none" xmlns="http://www.w3.org/2000/svg">
<path d="M16.5001 0.166748H1.50008C1.00008 0.166748 0.666748 0.500081 0.666748 1.00008V11.0001C0.666748 11.5001 1.00008 11.8334 1.50008 11.8334H16.5001C17.0001 11.8334 17.3334 11.5001 17.3334 11.0001V1.00008C17.3334 0.500081 17.0001 0.166748 16.5001 0.166748ZM14.0834 1.83341L9.00008 5.75008L3.91675 1.83341H14.0834ZM2.33341 10.1667V2.66675L8.50008 7.41675C8.66675 7.50008 8.83342 7.58342 9.00008 7.58342C9.16675 7.58342 9.33342 7.50008 9.50008 7.41675L15.6667 2.66675V10.1667H2.33341Z" fill="#575757"/>
</svg>
