<svg xmlns="http://www.w3.org/2000/svg" viewBox="0 0 64 64"><path d="M7.39,62.621h50.7a3.145,3.145,0,0,0,3.141-3.142V11.821a3.145,3.145,0,0,0-3.141-3.142h-5.3V6.588a5.182,5.182,0,0,0-10.363,0V8.679H23.055V6.588a5.182,5.182,0,0,0-10.364,0V8.679H7.39a3.146,3.146,0,0,0-3.143,3.142V59.479A3.146,3.146,0,0,0,7.39,62.621Zm51.844-3.142a1.142,1.142,0,0,1-1.141,1.142H7.39a1.144,1.144,0,0,1-1.143-1.142V22.638h4.047v33.7a1,1,0,0,0,1,1H54.187a1,1,0,0,0,1-1v-33.7h4.047Zm-6.047-9.84v5.7H47.492Zm-7.109,4.282v-5.7h5.7Zm7.109-7.7H45.078a1,1,0,0,0-1,1v8.11H12.294v-32.7H53.187ZM44.427,6.588a3.182,3.182,0,0,1,6.363,0V12.77a3.182,3.182,0,1,1-6.363,0Zm-29.736,0a3.182,3.182,0,0,1,6.364,0V12.77a3.182,3.182,0,0,1-6.364,0Zm-7.3,4.091h5.3V12.77a5.182,5.182,0,0,0,10.364,0V10.679H42.427V12.77a5.182,5.182,0,1,0,10.363,0V10.679h5.3a1.142,1.142,0,0,1,1.141,1.142v8.817H6.247V11.821A1.144,1.144,0,0,1,7.39,10.679Z"/><path d="M27.707,45.344a3.891,3.891,0,0,0,5.5,0L44.075,34.475a3.89,3.89,0,0,0-5.5-5.5l-8.117,8.117-3.312-3.312a3.982,3.982,0,0,0-5.5,0,3.888,3.888,0,0,0,0,5.5ZM23.058,35.193a1.888,1.888,0,0,1,2.672,0l4.02,4.019a1,1,0,0,0,1.414,0l8.824-8.824a1.89,1.89,0,0,1,2.673,2.673L31.794,43.928a1.937,1.937,0,0,1-2.674,0l-6.062-6.063a1.889,1.889,0,0,1,0-2.673Z"/></svg>