<svg xmlns="http://www.w3.org/2000/svg" viewBox="0 0 80 80" id="family"><path d="M66 75V46.661c.694.231 1.417.353 2.14.353a6.702 6.702 0 0 0 4.731-1.938 6.697 6.697 0 0 0 2.014-4.76 6.719 6.719 0 0 0-1.943-4.79L44.801 7.003C43.565 5.754 41.86 5.043 39.942 5a6.683 6.683 0 0 0-4.807 2.065L7.055 35.527a6.717 6.717 0 0 0-1.94 4.788 6.694 6.694 0 0 0 2.01 4.757c1.862 1.842 4.538 2.365 6.875 1.589V75h52zm-4-4H18V43.666l22-22.243 22 22.243V71zM13.83 42.193a2.757 2.757 0 0 1-3.896.031 2.725 2.725 0 0 1-.819-1.937 2.733 2.733 0 0 1 .79-1.952L38.004 9.853c.52-.544 1.22-.848 1.908-.853.577.013 1.4.165 2.042.815l28.139 28.518c.516.524.798 1.218.792 1.954a2.728 2.728 0 0 1-.823 1.941 2.756 2.756 0 0 1-3.89-.032L40 15.736 13.83 42.194z"></path><path d="M33.135 49.75c3.515 0 6.375-2.86 6.375-6.375S36.65 37 33.135 37s-6.375 2.86-6.375 6.375 2.86 6.375 6.375 6.375zm0-8.75a2.378 2.378 0 0 1 2.375 2.375c0 1.31-1.066 2.375-2.375 2.375s-2.375-1.066-2.375-2.375A2.378 2.378 0 0 1 33.135 41zm9.49 13.574-.032.002c-.966-1.917-2.962-3.232-5.218-3.232h-8.48a5.843 5.843 0 0 0-5.836 5.836v6.24h13.73v3.23H56.94v-6.24a5.843 5.843 0 0 0-5.836-5.836h-8.48zm-5.746 4.846h-9.82v-2.24c0-1.013.823-1.836 1.836-1.836h8.48c.567 0 1.078.265 1.416.676a5.827 5.827 0 0 0-1.912 3.4zm16.062.99v2.24H40.788v-2.24c0-1.012.824-1.836 1.837-1.836h8.48c1.013 0 1.836.824 1.836 1.837z"></path><path d="M46.865 52.98c3.516 0 6.375-2.86 6.375-6.375s-2.86-6.375-6.375-6.375-6.375 2.86-6.375 6.375 2.86 6.375 6.375 6.375zm0-8.75c1.31 0 2.375 1.066 2.375 2.375s-1.065 2.375-2.375 2.375-2.375-1.065-2.375-2.375 1.066-2.375 2.375-2.375z"></path></svg>