<svg xmlns="http://www.w3.org/2000/svg" fill-rule="evenodd" stroke-linejoin="round" stroke-miterlimit="1.414" clip-rule="evenodd" viewBox="0 0 32 32"><path d="m7.367 16.662 3.904 3.037-6.394 6.394a5.016 5.016 0 0 1-.905-1.999l-.001-.001a5.336 5.336 0 0 1-.062-.405c-.004-.035-.012-.07-.016-.106a5.309 5.309 0 0 1-.026-.523v-2.898l3.5-3.499Zm13.07-3.489 7.696 5.9v3.986a5.063 5.063 0 0 1-5.074 5.074H8.941c-.155 0-.307-.009-.458-.023a5.056 5.056 0 0 1-.448-.061c-.057-.01-.114-.019-.171-.032H7.86a5.188 5.188 0 0 1-.63-.184l-.075-.027a4.991 4.991 0 0 1-.902-.449l14.184-14.184Zm-7.921-4.661a1.45 1.45 0 0 1 1.462 1.463 1.45 1.45 0 0 1-1.462 1.462 1.45 1.45 0 0 1-1.463-1.462c0-.817.646-1.463 1.463-1.463Zm0-1.867a3.344 3.344 0 0 0-3.329 3.33 3.342 3.342 0 0 0 3.329 3.328 3.342 3.342 0 0 0 3.328-3.328 3.344 3.344 0 0 0-3.328-3.33ZM8.941 3.867h14.118a5.063 5.063 0 0 1 5.074 5.073v7.781l-7.209-5.527a.935.935 0 0 0-1.228.08l-7.095 7.095-4.739-3.687a.94.94 0 0 0-.61-.196.938.938 0 0 0-.623.273l-2.762 2.763V8.94a5.063 5.063 0 0 1 5.074-5.073Z"/></svg>