<svg xmlns="http://www.w3.org/2000/svg" enable-background="new 0 0 256 256" viewBox="0 0 256 256" id="ticket"><g display="none"><path d="M107.1 204.7c-1.9 0-3.6-.7-5-1.8-1.3 1.1-3.1 1.8-4.9 1.8-4.3 0-7.8-3.5-7.8-7.7v-17.8c-3.4-1.1-6.7-3.2-8.6-5.8-1.6-2.2-2.2-4.7-1.7-7.1l7.5-36.6c1.5-7.5 6.6-12.3 12.9-12.3h5.5c6.4 0 11.5 4.9 12.9 12.4l7.1 36.5c.5 2.4-.1 4.9-1.7 7.1-1.9 2.6-5.1 4.7-8.6 5.8V197C114.8 201.2 111.4 204.7 107.1 204.7zM101.8 173.5h.8c1.8 0 3.2 1.4 3.2 3.2V197c0 .7.6 1.3 1.4 1.3.7 0 1.3-.6 1.3-1.3v-20.4c0-1.6 1.2-3 2.8-3.2 2.6-.3 5.6-2 7-3.8.8-1.1.7-1.9.6-2.1l-7.1-36.5c-.7-3.5-2.8-7.2-6.7-7.2h-5.5c-4.8 0-6.3 5.5-6.7 7.2l-7.5 36.5c0 .2-.2.9.6 2.1 1.4 1.9 4.3 3.5 7 3.8 1.6.2 2.8 1.6 2.8 3.2V197c0 .7.6 1.3 1.4 1.3.7 0 1.3-.6 1.3-1.3v-20.3C98.6 174.9 100 173.5 101.8 173.5zM102.2 116.6c-7.8 0-14.2-6.3-14.2-14.1 0-7.8 6.4-14.2 14.2-14.2 7.8 0 14.2 6.4 14.2 14.2C116.3 110.2 110 116.6 102.2 116.6zM102.2 94.6c-4.3 0-7.8 3.5-7.8 7.8 0 4.3 3.5 7.8 7.8 7.8 4.3 0 7.8-3.5 7.8-7.8C110 98.1 106.5 94.6 102.2 94.6zM158.7 204.7c-1.9 0-3.6-.7-4.9-1.8-1.3 1.1-3.1 1.8-4.9 1.8-4.3 0-7.8-3.5-7.8-7.7v-25.5c-.1-.1-.2-.2-.3-.3-1-.9-2.2-2-2.5-3.7l-7.4-36.5c-.6-3 .2-6.1 2.3-8.6 2.5-3.1 6.6-5 10.6-5h20.1c4 0 8.1 1.9 10.6 5 2.1 2.5 2.9 5.6 2.3 8.6l-7.1 36.5c-.4 1.8-1.7 3.1-2.7 4.2-.1.1-.3.3-.5.5V197C166.5 201.2 163 204.7 158.7 204.7zM153.4 173.5h.8c1.8 0 3.2 1.4 3.2 3.2V197c0 .7.6 1.3 1.3 1.3.7 0 1.4-.6 1.4-1.3v-25.9c0-.5.1-1 .4-1.5.5-1 1.2-1.7 2-2.4.3-.3.9-.9 1-1.1l7.1-36.3c.3-1.4-.4-2.6-1-3.3-1.3-1.6-3.6-2.7-5.7-2.7h-20.1c-2.1 0-4.4 1.1-5.7 2.7-.6.7-1.3 1.9-1 3.3l7.4 36.1c.2.2.5.5.7.6.8.7 1.6 1.5 2.1 2.6.2.4.3.9.3 1.3V197c0 .7.6 1.3 1.4 1.3.7 0 1.3-.6 1.3-1.3v-20.3C150.2 174.9 151.6 173.5 153.4 173.5zM144.3 165.7L144.3 165.7 144.3 165.7zM153.8 116.6c-7.8 0-14.2-6.3-14.2-14.1 0-7.8 6.4-14.2 14.2-14.2 7.8 0 14.1 6.4 14.1 14.2C167.9 110.2 161.6 116.6 153.8 116.6zM153.8 94.6c-4.3 0-7.8 3.5-7.8 7.8 0 4.3 3.5 7.8 7.8 7.8 4.3 0 7.8-3.5 7.8-7.8C161.6 98.1 158.1 94.6 153.8 94.6z"></path><path d="M192.7,214.3H63.3c-1.8,0-3.2-1.4-3.2-3.2V81.8c0-1.8,1.4-3.2,3.2-3.2h129.4c1.8,0,3.2,1.4,3.2,3.2v129.4
			C195.9,212.9,194.4,214.3,192.7,214.3z M66.5,208h123V85h-123V208z"></path><path d="M130 84.4c-1.8 0-3.2-1.4-3.2-3.2V44.9c0-1.8 1.4-3.2 3.2-3.2s3.2 1.4 3.2 3.2v36.3C133.2 82.9 131.7 84.4 130 84.4zM156.5 70.8c-1.8 0-3.2-1.4-3.2-3.2V44.9c0-1.8 1.4-3.2 3.2-3.2s3.2 1.4 3.2 3.2v22.7C159.7 69.3 158.3 70.8 156.5 70.8z"></path><path d="M156.4,70.8c-0.8,0-1.6-0.3-2.3-0.9l-8-8c-1.2-1.2-1.2-3.3,0-4.5c1.2-1.2,3.3-1.2,4.5,0l8,8c1.2,1.2,1.2,3.3,0,4.5
			C158,70.4,157.2,70.8,156.4,70.8z"></path><path d="M156.6 70.8c-.8 0-1.6-.3-2.3-.9-1.2-1.2-1.2-3.3 0-4.5l8-8c1.2-1.2 3.3-1.2 4.5 0 1.2 1.2 1.2 3.3 0 4.5l-8 8C158.2 70.4 157.4 70.8 156.6 70.8zM99.5 70.8c-1.8 0-3.2-1.4-3.2-3.2V44.9c0-1.8 1.4-3.2 3.2-3.2 1.8 0 3.2 1.4 3.2 3.2v22.7C102.7 69.3 101.3 70.8 99.5 70.8z"></path><path d="M91.4,56c-0.8,0-1.6-0.3-2.3-0.9c-1.2-1.3-1.2-3.3,0-4.5l8-8c1.2-1.2,3.3-1.2,4.5,0c1.2,1.3,1.2,3.3,0,4.5l-8,8
			C93,55.7,92.2,56,91.4,56z"></path><path d="M107.6,56c-0.8,0-1.6-0.3-2.3-0.9l-8-8c-1.2-1.2-1.2-3.3,0-4.5s3.3-1.2,4.5,0l8,8c1.2,1.2,1.2,3.3,0,4.5
			C109.3,55.7,108.4,56,107.6,56z"></path></g><g><path d="M211.6,189.8H11.9v-38.6h3.2c7.1,0,12.9-5.8,12.9-12.9s-5.8-12.9-12.9-12.9h-3.2V86.8h199.7v38.6h-3.2
			c-7.1,0-12.9,5.8-12.9,12.9s5.8,12.9,12.9,12.9h3.2V189.8z M18.3,183.4h186.9v-26.1c-9.1-1.5-16.1-9.5-16.1-19
			c0-9.6,7-17.5,16.1-19V93.2H18.3v26.1c9.1,1.5,16.1,9.5,16.1,19c0,9.6-7,17.5-16.1,19V183.4z"></path><path d="M111.7,173.7c-1.8,0-3.2-1.4-3.2-3.2v-64.4c0-1.8,1.4-3.2,3.2-3.2c1.8,0,3.2,1.4,3.2,3.2v64.4
			C114.9,172.3,113.5,173.7,111.7,173.7z"></path><path d="M209.8,172.3l-0.7-6.3l28-3l-2.8-25.9c-4-0.2-7.8-1.7-10.9-4.3c-4-3.3-6.5-7.9-7-13c-0.6-5.1,0.9-10.1,4.2-14.1
			c2.6-3.2,6-5.4,9.8-6.5l-2.8-25.9l-189.1,20l-0.7-6.3l195.4-20.6l4.1,38.4l-3.2,0.3c-3.4,0.4-6.5,2.1-8.7,4.7
			c-2.2,2.7-3.2,6-2.8,9.5c0.4,3.5,2,6.6,4.7,8.7c2.7,2.2,6,3.2,9.5,2.8l3.2-0.3l4.1,38.4L209.8,172.3z"></path></g></svg>